<?xml version="1.0" encoding="UTF-8" standalone="no"?>
<svg
   version="1.1"
   viewBox="0 0 1920 1080"
   id="svg39"
   sodipodi:docname="wireguard-logo.svg"
   width="1920"
   height="1080"
   inkscape:version="1.3.1 (9b9bdc1480, 2023-11-25, custom)"
   xmlns:inkscape="http://www.inkscape.org/namespaces/inkscape"
   xmlns:sodipodi="http://sodipodi.sourceforge.net/DTD/sodipodi-0.dtd"
   xmlns="http://www.w3.org/2000/svg"
   xmlns:svg="http://www.w3.org/2000/svg"
   xmlns:rdf="http://www.w3.org/1999/02/22-rdf-syntax-ns#"
   xmlns:cc="http://creativecommons.org/ns#"
   xmlns:dc="http://purl.org/dc/elements/1.1/">
  <sodipodi:namedview
     id="namedview39"
     pagecolor="#ffffff"
     bordercolor="#000000"
     borderopacity="0.25"
     inkscape:showpageshadow="2"
     inkscape:pageopacity="0.0"
     inkscape:pagecheckerboard="0"
     inkscape:deskcolor="#d1d1d1"
     showgrid="false"
     inkscape:zoom="0.41510417"
     inkscape:cx="958.79548"
     inkscape:cy="539.62359"
     inkscape:window-width="1536"
     inkscape:window-height="792"
     inkscape:window-x="0"
     inkscape:window-y="0"
     inkscape:window-maximized="1"
     inkscape:current-layer="svg39" />
  <defs
     id="defs1">
    <style
       id="style1">.a{fill:#88171a;}.b{fill:#231f20;}</style>
  </defs>
  <title
     id="title1">wireguard</title>
  <rect
     style="fill:#dcdcdc;fill-opacity:0.99734;stroke-width:3.18819"
     id="rect40"
     width="1920"
     height="1080"
     x="0"
     y="0" />
  <g
     id="g40"
     transform="matrix(1.0029334,0,0,3.1218322,20.004713,20.000001)">
    <path
       class="a"
       d="M 402.6906,252.47 337.4756,52.48 h 24.456 l 49.636,154.34 50.904,-154.34 h 22.282 l 50.723,153.98 49.817,-153.98 h 23.731 l -65.034,199.99 h -18.115 l -52.715,-161.04 -52.172,161.04 h -18.296 z"
       id="path1" />
    <path
       class="a"
       d="M 604.5606,252.47 V 97.4 h 24.637 v 155.07 z"
       id="path2" />
    <path
       class="a"
       d="m 686.3106,184.9 v 67.57 h -24.274 V 98.13 h 106.52 q 23.73,0 37.136,11.413 13.404,11.413 13.405,31.702 a 41.774,41.774 0 0 1 -10.598,28.531 q -10.597,12.05 -27.625,14.764 l 42.933,67.932 h -26.267 l -43.839,-67.57 h -67.389 z m 0,-22.644 h 82.243 q 12.5,0 19.112,-5.4346 6.6101,-5.4346 6.6118,-15.579 0,-10.143 -6.6118,-15.488 -6.6152,-5.3416 -19.112,-5.3442 h -82.243 v 41.846 z"
       id="path3" />
    <path
       class="a"
       d="M 841.9806,252.47 V 97.77 h 145.1 v 22.644 h -120.83 v 38.585 h 79.345 v 22.282 h -79.345 v 48.911 h 127.53 v 22.282 h -151.81 z"
       id="path4" />
    <path
       class="a"
       d="m 1164.4606,198.31 v -29.347 h -54.527 v -23.006 h 79.345 V 206.1 q -14.495,24.999 -37.77,38.313 -23.28,13.315 -52.806,13.315 -44.929,0 -74.182,-29.619 -29.257,-29.618 -29.256,-75.087 0,-45.65 29.347,-75.269 29.347,-29.618 74.091,-29.618 27.716,0 50.542,12.137 a 98.119,98.119 0 0 1 37.136,34.6 l -20.833,14.854 a 68.382,68.382 0 0 0 -27.173,-28.079 78.549,78.549 0 0 0 -39.672,-10.145 q -33.694,0 -55.795,23.097 -22.104,23.096 -22.101,58.421 0,35.325 22.101,58.331 22.099,23.008 55.795,23.006 21.012,0 37.408,-9.0576 16.393,-9.0565 28.351,-26.992 z"
       id="path5" />
    <path
       class="a"
       d="m 1216.3606,98.133 h 24.274 v 99.09 q 0,22.282 10.507,30.071 10.504,7.7908 41.665,7.7896 31.338,0 41.846,-7.7896 10.504,-7.7864 10.507,-30.071 v -99.09 h 24.093 v 105.43 q 0,28.442 -18.025,41.122 -18.027,12.677 -58.784,12.681 -40.581,0 -58.331,-12.5 -17.756,-12.5 -17.753,-41.303 V 98.133 Z"
       id="path6" />
    <path
       class="a"
       d="m 1365.4606,252.47 78.62,-154.7 h 15.217 l 79.345,154.7 h -25.905 l -20.108,-39.31 h -81.7 l -19.927,39.31 z m 55.976,-59.78 h 60.505 l -30.071,-59.237 z"
       id="path7" />
    <path
       class="a"
       d="m 1565.5606,184.9 v 67.57 h -24.274 V 98.13 h 106.52 q 23.73,0 37.136,11.413 13.404,11.413 13.405,31.702 a 41.774,41.774 0 0 1 -10.598,28.531 q -10.597,12.05 -27.625,14.764 l 42.933,67.932 h -26.267 l -43.839,-67.57 h -67.389 z m 0,-22.644 h 82.243 q 12.5,0 19.112,-5.4346 6.6101,-5.4346 6.6118,-15.579 0,-10.143 -6.6118,-15.488 -6.6152,-5.3416 -19.112,-5.3442 h -82.243 v 41.846 z"
       id="path8" />
    <path
       class="a"
       d="m 1790.2606,97.771 q 37.86,0 61.048,21.647 23.186,21.65 23.188,56.248 0,34.964 -22.735,55.886 -22.736,20.922 -61.501,20.923 h -68.657 v -154.7 h 68.657 z m 0.3623,22.282 h -44.745 v 110.14 h 44.745 q 27.534,0 43.295,-14.764 15.76,-14.762 15.76,-40.125 0,-24.456 -16.304,-39.854 -16.304,-15.395 -42.752,-15.398 z"
       id="path9" />
    <path
       class="b"
       d="m 399.6706,304.63 v 18.614 h -6.3467 v -40.448 h 37.37 v 5.9204 h -31.023 v 10.088 h 20.035 v 5.8257 h -20.035 z"
       id="path10" />
    <path
       class="b"
       d="m 425.2406,323.24 20.556,-40.448 h 3.9785 l 20.745,40.448 h -6.773 l -5.2574,-10.278 h -21.361 l -5.21,10.278 h -6.6782 z m 14.635,-15.63 h 15.819 l -7.8623,-15.488 z"
       id="path11" />
    <path
       class="b"
       d="m 475.0206,318.08 3.0786,-5.3047 a 35.512,35.512 0 0 0 9.0938,4.3574 31.144,31.144 0 0 0 9.4253,1.563 15.505,15.505 0 0 0 8.7148,-2.2022 6.5827,6.5827 0 0 0 3.3154,-5.6602 5.5059,5.5059 0 0 0 -3.0312,-5.1387 q -3.0315,-1.6809 -9.5674,-1.8711 -11.036,-0.14209 -15.156,-2.5576 -4.1206,-2.4155 -4.1206,-8.0044 a 9.7851,9.7851 0 0 1 4.523,-8.3833 q 4.5227,-3.1728 12.149,-3.1733 a 35.061,35.061 0 0 1 10.112,1.4682 37.803,37.803 0 0 1 9.4492,4.3574 l -3.1733,5.2573 a 31.907,31.907 0 0 0 -8.1465,-3.9546 27.298,27.298 0 0 0 -8.3359,-1.3975 14.736,14.736 0 0 0 -7.3887,1.6104 4.7835,4.7835 0 0 0 -2.7944,4.2153 3.9383,3.9383 0 0 0 2.8184,3.8364 q 2.8169,1.1367 9.7803,1.1367 9.6621,0 14.588,3.2681 4.9255,3.2681 4.9258,9.7095 a 11.509,11.509 0 0 1 -4.9971,9.52 q -4.9973,3.7888 -12.954,3.7891 a 41.784,41.784 0 0 1 -11.675,-1.6812 40.763,40.763 0 0 1 -10.633,-4.7602 z"
       id="path12" />
    <path
       class="b"
       d="m 538.0606,323.24 v -34.812 h -17.051 v -5.6362 h 40.448 v 5.6362 h -17.098 v 34.812 h -6.2993 z"
       id="path13" />
    <path
       class="b"
       d="m 574.5206,331.48 a 38.394,38.394 0 0 0 2.4629,-4.1206 27.126,27.126 0 0 0 1.7051,-4.1206 h -0.37891 a 3.0036,3.0036 0 0 1 -2.4394,-1.208 4.718,4.718 0 0 1 -0.9707,-3.0547 4.8304,4.8304 0 0 1 1.1602,-3.3389 3.7377,3.7377 0 0 1 2.9131,-1.3027 3.7862,3.7862 0 0 1 3.2207,1.7285 7.8996,7.8996 0 0 1 1.2314,4.6655 11.548,11.548 0 0 1 -1.7998,5.7075 34.646,34.646 0 0 1 -5.352,6.7017 z"
       id="path14" />
    <path
       class="b"
       d="m 638.1306,323.24 v -40.448 h 5.2573 l 16.577,23.682 16.577,-23.682 h 5.2573 v 40.448 h -6.2993 v -29.081 l -15.535,22.498 -15.488,-22.498 v 29.081 h -6.3466 z"
       id="path15" />
    <path
       class="b"
       d="m 718.8306,324.52 q -10.799,0 -17.761,-6.1099 a 20.39,20.39 0 0 1 -0.0239,-30.668 q 6.9382,-6.0381 17.785,-6.0386 10.941,0 17.88,6.0151 a 20.442,20.442 0 0 1 -0.0239,30.715 q -6.9624,6.0872 -17.856,6.0864 z m 0,-5.9204 q 8.0991,0 13.214,-4.3809 a 14.671,14.671 0 0 0 -0.0239,-22.285 q -5.1394,-4.4048 -13.19,-4.4048 -8.0522,0 -13.144,4.3809 a 14.764,14.764 0 0 0 0,22.309 q 5.0911,4.3814 13.144,4.3809 z"
       id="path16" />
    <path
       class="b"
       d="m 773.9206,282.79 q 9.8987,0 15.961,5.6602 6.0623,5.6602 6.0625,14.706 0,9.1414 -5.9438,14.611 -5.9451,5.4712 -16.08,5.4707 h -17.951 v -40.448 h 17.951 z m 0.0947,5.8257 h -11.699 v 28.797 h 11.699 q 7.199,0 11.32,-3.8599 4.1206,-3.8599 4.1206,-10.491 a 13.686,13.686 0 0 0 -4.2627,-10.42 q -4.2626,-4.0254 -11.178,-4.0259 z"
       id="path17" />
    <path
       class="b"
       d="m 807.8706,323.24 v -40.448 h 37.938 v 5.9204 h -31.591 v 10.088 h 20.745 v 5.8257 h -20.745 v 12.788 h 33.344 v 5.8257 h -39.69 z"
       id="path18" />
    <path
       class="b"
       d="m 864.9406,305.57 v 17.666 h -6.3466 v -40.354 h 27.85 q 6.2044,0 9.7095,2.9839 a 10.301,10.301 0 0 1 3.5049,8.2886 10.926,10.926 0 0 1 -2.7705,7.46 11.756,11.756 0 0 1 -7.2231,3.8599 l 11.225,17.761 h -6.8677 l -11.462,-17.666 h -17.619 z m 0,-5.9204 h 21.503 a 7.6927,7.6927 0 0 0 4.9966,-1.4209 4.9717,4.9717 0 0 0 1.729,-4.0732 4.9048,4.9048 0 0 0 -1.729,-4.0498 7.7901,7.7901 0 0 0 -4.9966,-1.397 h -21.503 v 10.941 z"
       id="path19" />
    <path
       class="b"
       d="m 913.1106,323.24 v -40.448 h 3.3154 l 25.718,28.418 v -28.418 h 6.2046 v 40.448 h -3.3154 l -25.671,-28.323 v 28.323 h -6.252 z"
       id="path20" />
    <path
       class="b"
       d="m 969.0006,331.48 a 38.394,38.394 0 0 0 2.4629,-4.1206 27.126,27.126 0 0 0 1.7051,-4.1206 h -0.37891 a 3.0036,3.0036 0 0 1 -2.4394,-1.208 4.718,4.718 0 0 1 -0.9707,-3.0547 4.8304,4.8304 0 0 1 1.1602,-3.3389 3.7377,3.7377 0 0 1 2.9131,-1.3028 3.7862,3.7862 0 0 1 3.2207,1.7285 7.8996,7.8996 0 0 1 1.2314,4.6655 11.548,11.548 0 0 1 -1.7998,5.7075 34.646,34.646 0 0 1 -5.352,6.7017 z"
       id="path21" />
    <path
       class="b"
       d="m 1029.1606,318.08 3.0786,-5.3047 a 35.512,35.512 0 0 0 9.0938,4.3574 31.144,31.144 0 0 0 9.4253,1.563 15.505,15.505 0 0 0 8.7148,-2.2022 6.5827,6.5827 0 0 0 3.3154,-5.6602 5.5059,5.5059 0 0 0 -3.0312,-5.1387 q -3.0315,-1.6809 -9.5674,-1.8711 -11.036,-0.14209 -15.156,-2.5576 -4.1206,-2.4155 -4.1206,-8.0044 a 9.7851,9.7851 0 0 1 4.523,-8.3833 q 4.5227,-3.1728 12.149,-3.1733 a 35.061,35.061 0 0 1 10.112,1.4683 37.803,37.803 0 0 1 9.4492,4.3574 l -3.1733,5.2573 a 31.907,31.907 0 0 0 -8.1465,-3.9546 27.298,27.298 0 0 0 -8.3359,-1.3975 14.736,14.736 0 0 0 -7.3887,1.6104 4.7835,4.7835 0 0 0 -2.7944,4.2153 3.9383,3.9383 0 0 0 2.8184,3.8364 q 2.8169,1.1367 9.7803,1.1367 9.6621,0 14.588,3.2681 4.9255,3.2681 4.9258,9.7095 a 11.509,11.509 0 0 1 -4.9971,9.52 q -4.9973,3.7888 -12.954,3.7891 a 41.784,41.784 0 0 1 -11.675,-1.6812 40.763,40.763 0 0 1 -10.633,-4.7602 z"
       id="path22" />
    <path
       class="b"
       d="m 1082.5606,323.24 v -40.448 h 37.938 v 5.9204 h -31.591 v 10.088 h 20.745 v 5.8257 h -20.745 v 12.788 h 33.344 v 5.8257 h -39.69 z"
       id="path23" />
    <path
       class="b"
       d="m 1176.0606,313.34 a 22.946,22.946 0 0 1 -9.0698,8.312 27.68,27.68 0 0 1 -12.765,2.8657 q -10.657,0 -17.548,-6.0386 a 20.531,20.531 0 0 1 0,-30.691 q 6.8906,-6.0857 17.548,-6.0864 a 28.416,28.416 0 0 1 12.03,2.4868 21.89,21.89 0 0 1 8.7148,7.0332 l -5.0205,3.5049 a 16.432,16.432 0 0 0 -6.6074,-5.3281 21.699,21.699 0 0 0 -9.1172,-1.8711 18.888,18.888 0 0 0 -12.859,4.4287 14.637,14.637 0 0 0 0.024,22.213 18.906,18.906 0 0 0 12.835,4.4287 20.434,20.434 0 0 0 9.52,-2.1314 20.208,20.208 0 0 0 7.2466,-6.6309 z"
       id="path24" />
    <path
       class="b"
       d="m 1188.6606,282.89 h 6.3467 v 25.908 q 0,5.8257 2.7471,7.8623 2.7466,2.0369 10.894,2.0366 8.1936,0 10.941,-2.0366 2.7466,-2.0361 2.7471,-7.8623 V 282.89 h 6.2993 v 27.565 q 0,7.4363 -4.7124,10.751 -4.7139,3.3149 -15.37,3.3154 -10.61,0 -15.251,-3.2681 -4.6421,-3.2681 -4.6416,-10.799 v -27.565 z"
       id="path25" />
    <path
       class="b"
       d="m 1250.8606,305.57 v 17.666 h -6.3467 v -40.354 h 27.85 q 6.2043,0 9.7095,2.9839 a 10.301,10.301 0 0 1 3.5049,8.2886 10.926,10.926 0 0 1 -2.7705,7.46 11.756,11.756 0 0 1 -7.2231,3.8599 l 11.225,17.761 h -6.8677 l -11.462,-17.666 h -17.619 z m 0,-5.9204 h 21.503 a 7.6927,7.6927 0 0 0 4.9966,-1.4209 4.9717,4.9717 0 0 0 1.729,-4.0732 4.9048,4.9048 0 0 0 -1.729,-4.0498 7.7901,7.7901 0 0 0 -4.9966,-1.397 h -21.503 v 10.941 z"
       id="path26" />
    <path
       class="b"
       d="m 1298.9606,323.24 v -40.448 h 37.938 v 5.9204 h -31.591 v 10.088 h 20.745 v 5.8257 h -20.745 v 12.788 h 33.344 v 5.8257 h -39.69 z"
       id="path27" />
    <path
       class="b"
       d="m 1401.4606,323.24 h -3.2681 l -20.319,-40.448 h 6.7256 l 15.204,30.265 14.967,-30.265 h 6.9624 z"
       id="path28" />
    <path
       class="b"
       d="m 1438.0606,305.57 v 17.666 h -6.3467 v -40.448 h 29.413 q 6.252,0 9.7334,2.96 a 10.32,10.32 0 0 1 3.481,8.3125 10.819,10.819 0 0 1 -3.4575,8.2886 12.805,12.805 0 0 1 -9.0938,3.2207 h -23.729 z m 0,-5.9204 h 23.066 a 7.6097,7.6097 0 0 0 4.9492,-1.4209 5.6895,5.6895 0 0 0 0.071,-8.0991 7.0721,7.0721 0 0 0 -4.7363,-1.4209 h -23.35 v 10.941 z"
       id="path29" />
    <path
       class="b"
       d="m 1485.2606,323.24 v -40.448 h 3.3154 l 25.718,28.418 v -28.418 h 6.2046 v 40.448 h -3.3154 l -25.671,-28.323 v 28.323 h -6.252 z"
       id="path30" />
    <path
       class="b"
       d="m 1580.0606,323.24 v -34.812 h -17.051 v -5.6362 h 40.448 v 5.6362 h -17.098 v 34.812 h -6.2993 z"
       id="path31" />
    <path
       class="b"
       d="m 1611.7606,282.89 h 6.3467 v 25.908 q 0,5.8257 2.7471,7.8623 2.7466,2.0369 10.894,2.0366 8.1936,0 10.941,-2.0366 2.7466,-2.0361 2.7471,-7.8623 V 282.89 h 6.2993 v 27.565 q 0,7.4363 -4.7124,10.751 -4.7139,3.3149 -15.37,3.3154 -10.61,0 -15.251,-3.2681 -4.6421,-3.2681 -4.6416,-10.799 v -27.565 z"
       id="path32" />
    <path
       class="b"
       d="m 1667.6606,323.24 v -40.448 h 3.3154 l 25.718,28.418 v -28.418 h 6.2046 v 40.448 h -3.3154 l -25.671,-28.323 v 28.323 h -6.252 z"
       id="path33" />
    <path
       class="b"
       d="m 1718.7606,323.24 v -40.448 h 3.3154 l 25.718,28.418 v -28.418 h 6.2046 v 40.448 h -3.3154 l -25.671,-28.323 v 28.323 h -6.252 z"
       id="path34" />
    <path
       class="b"
       d="m 1769.7606,323.24 v -40.448 h 37.938 v 5.9204 h -31.591 v 10.088 h 20.745 v 5.8257 h -20.745 v 12.788 h 33.344 v 5.8257 h -39.69 z"
       id="path35" />
    <path
       class="b"
       d="m 1820.4606,323.24 v -40.448 h 6.3467 v 34.623 h 30.028 v 5.8257 h -36.375 z"
       id="path36" />
    <path
       class="a"
       d="m 299.7406,145.56 c 0,0 6.9396,-145.56 -153.04,-145.56 -141.48,0 -145.9,139.63 -145.9,139.63 0,0 -20.811,160.37 149.16,160.37 163.02,0 149.78,-154.44 149.78,-154.44 z m -197.8,-50.863 c 30.017,-18.364 68.366,-7.1401 82.735,20.476 2.7233,5.2338 3.0694,13.291 1.3447,18.782 -5.9546,18.956 -20.014,29.587 -39.312,34.103 5.6892,-4.8707 10.218,-10.394 11.659,-18.025 a 26.402,26.402 0 0 0 -4.5425,-20.956 26.76,26.76 0 0 0 -30.811,-9.3892 c -11.881,4.5111 -18.389,15.354 -17.216,28.683 1.0898,12.381 10.484,20.405 28.061,23.453 -2.627,1.3904 -4.6503,2.4144 -6.6299,3.5172 a 63.918,63.918 0 0 0 -20.544,17.868 c -1.7839,2.4084 -3.0104,2.6024 -5.727,0.94116 -35.338,-21.61 -37.609,-75.844 0.98226,-99.453 z m -26.449,133.53 c -5.6769,1.441 -11.178,3.5742 -16.981,5.4775 2.8385,-19.151 25.265,-36.788 44.23,-34.776 a 48.881,48.881 0 0 0 -9.242,25.893 c -6.302,1.1606 -12.241,1.9414 -18.007,3.405 z m 120.79,-186.98 c 5.6099,0.20612 11.23,0.12091 16.844,0.25378 a 29.052,29.052 0 0 1 4.1674,0.58069 40.607,40.607 0 0 1 -4.2357,5.4332 c -2.007,1.8701 -4.2745,3.6986 -7.1661,0.856 -0.6955,-0.68372 -2.3386,-0.52679 -3.5487,-0.54272 -5.5823,-0.07336 -11.172,-0.25177 -16.746,-0.04132 a 104.04,104.04 0 0 0 -14.425,1.473 c -0.89368,0.16046 -2.2299,3.1315 -1.8191,4.227 0.9693,2.5853 2.3833,5.4363 4.4779,7.0898 7.7403,6.11 15.972,11.596 23.748,17.664 7.556,5.8966 14.589,12.358 18.875,21.253 5.5843,11.59 5.747,23.743 3.3388,35.95 -4.0203,20.378 -14.333,37.261 -31.032,49.524 -6.7288,4.941 -15.06,7.7451 -22.767,11.295 -6.778,3.1225 -13.755,5.8115 -20.549,8.9008 -12.249,5.5695 -19.133,18.865 -17.108,32.688 1.8585,12.685 12.987,23.271 25.735,25.456 15.292,2.6216 31.071,-7.3163 34.812,-22.86 4.2067,-17.478 -5.2898,-33.083 -23.065,-37.813 -0.78271,-0.20831 -1.5684,-0.40552 -3.2012,-0.8269 4.7549,-2.1245 8.8614,-3.6381 12.653,-5.7244 q 9.9213,-5.4594 19.481,-11.562 c 1.8742,-1.199 2.8868,-1.1996 4.4852,0.18225 12.225,10.57 19.518,23.718 21.563,39.839 3.3845,26.684 -9.2471,51.198 -33.072,63.762 -36.86,19.439 -81.965,-2.6864 -90.106,-43.552 -6.9738,-35.003 17.73,-66.754 47.462,-72.884 12.787,-2.6364 24.48,-7.9596 33.57,-17.807 5.8652,-6.3541 8.7084,-11.806 9.6772,-14.266 a 39.565,39.565 0 0 0 2.7211,-14.469 33.867,33.867 0 0 0 -2.9654,-12.398 c -3.104,-7.075 -14.995,-18.33 -17.939,-20.704 l -28,-21.921 c -0.98761,-0.81256 -2.0994,-0.75366 -4.5079,-0.59045 -2.8611,0.19391 -10.175,0.59888 -13.331,-0.22815 2.553,-1.9321 9.5132,-4.7451 12.502,-7.007 -9.0734,-6.1297 -19.43,-3.9158 -28.941,-5.7461 2.1992,-4.0959 13.081,-10.39 19.27,-11.091 a 91.533,91.533 0 0 0 -1.6876,-10.281 c -0.37781,-1.3917 -1.9312,-2.7408 -3.2864,-3.5355 -3.286,-1.9267 -6.7694,-3.5167 -10.549,-5.4327 a 21.936,21.936 0 0 1 11.332,-3.5055 42.316,42.316 0 0 1 11.348,1.1056 c 6.7422,1.5405 12.124,0.53491 17.488,-4.048 -4.222,-1.7002 -8.4435,-3.2535 -12.538,-5.0907 a 123.04,123.04 0 0 1 -11.779,-6.1583 c 10.622,1.4755 20.896,5.4585 31.757,4.0034 q 0.1387,-0.74048 0.27728,-1.4809 c -8.1194,-1.8899 -16.239,-3.7798 -25.229,-5.8724 15.04,-1.3769 29.042,-1.604 42.301,4.8541 3.731,1.8173 7.6348,3.3215 11.211,5.3972 1.7443,1.0124 2.9186,3.0078 4.3496,4.5594 1.1366,1.2325 2.0495,2.8837 3.446,3.6264 5.3,2.8184 11.134,2.9291 17.078,2.7879 0.0444,-0.67694 0.0861,-1.3114 0.1308,-1.9933 5.9821,1.8693 12.715,8.7679 12.704,13.806 -9.6911,0 -19.374,-0.037 -29.056,0.05389 -1.0348,0.0097 -2.0626,0.76563 -3.0936,1.1754 0.97986,0.57067 1.9428,1.5994 2.9423,1.6362 z"
       id="path37" />
    <path
       class="a"
       d="m 183.7806,26.906 a 1.4806,1.4806 0 0 0 -0.18927,2.3686 2.2326,2.2326 0 0 0 3.0724,0.8219 c 0.9328,-0.47052 1.8478,-0.97137 2.975,-1.5665 -0.9079,-0.775 -1.6362,-1.4148 -2.3857,-2.0324 -1.318,-1.086 -2.411,-0.40386 -3.4724,0.40833 z"
       id="path38" />
    <g
       transform="translate(293.8,179.57)"
       stroke-width="1px"
       id="g39">
      <path
         d="m 1566.2,-95.856 h -1.24 c -7.56,0.08 -11.84,6.64 -11.84,13 0,6.16 3.92,12.32 12.2,12.32 h 0.56 c 8.6,-0.24 12.36,-6.16 12.36,-12.24 v -0.72 c -0.28,-6.36 -4.84,-12.36 -12.04,-12.36 z m -5.52,5.16 v 14.44 h 1.8 v -12.96 h 3.4 c 1.88,0 2.8,1.16 2.8,2.32 0,1.4 -1.36,3 -3.8,3 -0.36,0 -0.84,-0.08 -1.28,-0.16 l 5.44,7.8 h 2.36 l -4.92,-6.64 c 2.4,-0.44 4,-2.36 4,-4.24 0,-1.76 -1.52,-3.56 -4.88,-3.56 z m -3.44,0.28 c 2.52,-2.72 5.16,-3.72 8.24,-3.72 h 1.28 c 5.48,0.24 9.44,5.8 9.44,11.16 0,0.76 -0.08,1.64 -0.24,2.36 -0.84,4.92 -5.12,8.36 -10.08,8.36 -0.12,0 -0.36,0.04 -0.48,0.04 -6.28,0 -10.28,-5.68 -10.28,-11.36 0,-0.48 0.08,-1.12 0.12,-1.64 0,0 0.28,-3.12 2,-5.2 z"
         id="path39" />
    </g>
  </g>
  <metadata
     id="metadata39">
    <rdf:RDF>
      <cc:Work
         rdf:about="">
        <dc:title>wireguard</dc:title>
      </cc:Work>
    </rdf:RDF>
  </metadata>
</svg>
