<?xml version="1.0" encoding="UTF-8" standalone="no"?>
<svg
   version="1.1"
   width="640"
   height="360"
   viewBox="0 0 640 360"
   id="svg3"
   sodipodi:docname="logo.svg"
   inkscape:version="1.3.1 (9b9bdc1480, 2023-11-25, custom)"
   xmlns:inkscape="http://www.inkscape.org/namespaces/inkscape"
   xmlns:sodipodi="http://sodipodi.sourceforge.net/DTD/sodipodi-0.dtd"
   xmlns="http://www.w3.org/2000/svg"
   xmlns:svg="http://www.w3.org/2000/svg">
  <defs
     id="defs3" />
  <sodipodi:namedview
     id="namedview3"
     pagecolor="#ffffff"
     bordercolor="#000000"
     borderopacity="0.25"
     inkscape:showpageshadow="2"
     inkscape:pageopacity="0.0"
     inkscape:pagecheckerboard="0"
     inkscape:deskcolor="#d1d1d1"
     inkscape:zoom="1.2453125"
     inkscape:cx="320.40151"
     inkscape:cy="179.87453"
     inkscape:window-width="1536"
     inkscape:window-height="796"
     inkscape:window-x="0"
     inkscape:window-y="0"
     inkscape:window-maximized="1"
     inkscape:current-layer="svg3" />
  <rect
     width="1000"
     height="600"
     x="0"
     y="0"
     fill="#ffff"
     id="rect1"
     style="fill:none" />
  <g
     id="g3"
     transform="matrix(0.79999999,0,0,1.8316882,-80.00002,-369.50646)">
    <rect
       width="333.33334"
       height="333.33334"
       rx="13.333333"
       ry="13.333333"
       y="260.7233"
       fill="#5f0faf"
       transform="matrix(0.52410665,0,0,0.52410665,0,76.002074)"
       x="238.50113"
       id="rect2" />
    <path
       d="m 462.53018,352.38998 v 150 h -18.90682 v -69.96693 h -76.91111 v 69.96693 h -18.90683 v -150 h 18.90683 v 63.46042 h 76.91111 v -63.46042 z"
       fill="#ffffff"
       transform="matrix(0.52410665,0,0,0.52410665,0,76.002074)"
       id="path2" />
    <path
       d="m 751.78576,448.03392 v 0 q 0,13.06818 -3.40909,23.079 -3.40909,10.03788 -9.74026,17.04545 -6.33116,7.03464 -15.39502,10.63312 -9.03679,3.59848 -20.15692,3.59848 v 0 q -10.30844,0 -19.07468,-3.59848 -8.76623,-3.59848 -15.20562,-10.63312 -6.4394,-7.00757 -10.03788,-17.04545 -3.59849,-10.01082 -3.59849,-23.079 v 0 q 0,-17.34308 5.84416,-29.30195 5.84415,-11.98593 16.74783,-18.3171 10.90368,-6.33117 25.91992,-6.33117 v 0 q 14.20454,0 25.02705,6.33117 10.82251,6.33117 16.93723,18.3171 6.14177,11.95887 6.14177,29.30195 z m -78.8961,0 v 0 q 0,12.28355 3.2197,21.3474 3.2197,9.03679 10.03788,13.90692 6.81818,4.87013 17.34307,4.87013 v 0 q 10.49784,0 17.31602,-4.87013 6.81818,-4.87013 10.03788,-13.90692 3.21969,-9.06385 3.21969,-21.3474 v 0 q 0,-12.47295 -3.30086,-21.23918 -3.32792,-8.76623 -10.03788,-13.52814 -6.73701,-4.7619 -17.4513,-4.7619 v 0 q -15.9632,0 -23.16017,10.49783 -7.22403,10.52489 -7.22403,29.03139 z m 191.31493,52.21861 -17.93831,-58.8474 q -1.16342,-4.0855 -2.32684,-8.06277 -1.16342,-4.00433 -2.05628,-7.60282 -0.8658,-3.59848 -1.65043,-6.73701 -0.78463,-3.11147 -1.16342,-5.24892 v 0 h -0.78463 q -0.37879,2.13745 -1.08225,5.24892 -0.67641,3.13853 -1.54221,6.81818 -0.89286,3.70671 -1.94805,7.71104 -1.08225,3.97727 -2.43507,8.08983 v 0 l -18.69588,58.63095 H 793.1007 L 764.4481,395.84236 h 17.72186 l 14.421,55.70887 q 1.56926,5.65476 2.92207,11.39069 1.37987,5.73593 2.43507,10.90368 1.08225,5.16775 1.46104,8.87446 v 0 h 0.78463 q 0.59524,-2.35389 1.35281,-5.84415 0.78464,-3.51732 1.67749,-7.41342 0.8658,-3.89611 1.94806,-7.79221 1.05519,-3.8961 2.02922,-7.00758 v 0 l 18.50649,-58.82034 h 18.69589 l 17.93831,58.82034 q 1.35281,4.49135 2.81385,9.55087 1.46104,5.05952 2.62446,9.82143 1.19047,4.78896 1.56926,8.49567 v 0 h 0.78463 q 0.37879,-3.32792 1.46104,-8.27922 1.0552,-4.97836 2.51624,-10.93074 1.46104,-5.92532 3.0303,-11.76948 v 0 l 14.61039,-55.70887 h 17.53246 L 884.25329,500.25253 Z M 978.35502,376.74063 V 500.44192 H 960.82255 V 376.74063 h -43.45238 v -15.39502 h 104.22073 v 15.39502 z m 152.73268,71.29329 v 0 q 0,13.06818 -3.4091,23.079 -3.4091,10.03788 -9.7403,17.04545 -6.3311,7.03464 -15.395,10.63312 -9.0638,3.59848 -20.1569,3.59848 v 0 q -10.3355,0 -19.1017,-3.59848 -8.7663,-3.59848 -15.2057,-10.63312 -6.4123,-7.00757 -10.0108,-17.04545 -3.6255,-10.01082 -3.6255,-23.079 v 0 q 0,-17.34308 5.8441,-29.30195 5.8442,-11.98593 16.7749,-18.3171 10.9037,-6.33117 25.8929,-6.33117 v 0 q 14.2316,0 25.027,6.33117 10.8225,6.33117 16.9643,18.3171 6.1418,11.95887 6.1418,29.30195 z m -78.8961,0 v 0 q 0,12.28355 3.1926,21.3474 3.2197,9.03679 10.0379,13.90692 6.8182,4.87013 17.3431,4.87013 v 0 q 10.5249,0 17.3431,-4.87013 6.8181,-4.87013 10.0378,-13.90692 3.1927,-9.06385 3.1927,-21.3474 v 0 q 0,-12.47295 -3.3009,-21.23918 -3.3009,-8.76623 -10.0379,-13.52814 -6.7099,-4.7619 -17.4242,-4.7619 v 0 q -15.9903,0 -23.1872,10.49783 -7.197,10.52489 -7.197,29.03139 z m 218.5606,-86.68831 v 139.09631 h -20.4546 l -74.4047,-115.5303 h -0.7846 q 0.3787,4.49135 0.6764,10.63312 0.2976,6.14178 0.5952,13.04113 0.2706,6.9264 0.2706,14.12337 v 0 77.73268 h -16.1526 V 361.34561 h 20.2651 l 74.2154,115.12445 h 0.7846 q -0.2164,-3.11147 -0.487,-9.33441 -0.2976,-6.25 -0.5952,-13.63637 -0.2977,-7.41342 -0.2977,-13.63636 v 0 -78.51731 z m 75.7846,32.73809 v 0 q 13.447,0 23.079,5.84416 9.6321,5.84415 14.7998,16.45021 5.1678,10.63312 5.1678,24.83766 v 0 10.3355 h -71.4827 q 0.3788,17.72186 9.0368,26.97511 8.685,9.25325 24.2694,9.25325 v 0 q 9.9297,0 17.6137,-1.83983 7.711,-1.86688 15.882,-5.35714 v 0 14.98917 q -7.9816,3.51732 -15.7738,5.16775 -7.7922,1.65043 -18.5065,1.65043 v 0 q -14.7998,0 -26.1905,-6.03354 -11.4177,-6.03355 -17.7489,-18.01948 -6.3311,-11.98593 -6.3311,-29.32901 v 0 q 0,-17.12662 5.7629,-29.41017 5.736,-12.28355 16.1526,-18.88528 10.4438,-6.62879 24.2695,-6.62879 z m -0.1894,14.01515 v 0 q -12.2835,0 -19.3993,7.90044 -7.1158,7.87337 -8.4686,21.91558 v 0 h 53.1926 q 0,-8.95563 -2.7327,-15.58442 -2.7327,-6.62878 -8.2792,-10.41666 -5.5465,-3.81494 -14.3128,-3.81494 z m 86.8777,-55.70887 v 36.03896 q 0,6.62879 -0.2976,12.36472 -0.2976,5.76299 -0.6764,9.06385 v 0 h 0.974 q 4.4643,-6.62879 12.2565,-11.09307 7.7922,-4.49134 20.0758,-4.49134 v 0 q 19.4805,0 31.277,13.52813 11.7695,13.5552 11.7695,40.42208 v 0 q 0,17.93831 -5.3571,30.00541 -5.3572,12.09416 -15.0974,18.12771 -9.7403,6.03354 -22.592,6.03354 v 0 q -12.2836,0 -20.0758,-4.49134 -7.7922,-4.46428 -12.2565,-10.71428 v 0 h -1.3798 l -3.4903,13.25757 h -12.2836 V 352.38998 Z m 29.4102,56.11472 v 0 q -11.0931,0 -17.5325,4.16666 -6.4394,4.19373 -9.145,12.87879 -2.7327,8.65801 -2.7327,22.10498 v 0 0.78463 q 0,19.26407 6.3312,29.49134 6.3312,10.22727 23.4578,10.22727 v 0 q 14.0422,0 20.9415,-10.30844 6.9265,-10.3355 6.9265,-29.81601 v 0 q 0,-19.66992 -6.9265,-29.59957 -6.8993,-9.92965 -21.3203,-9.92965 z m 73.2413,-12.47295 h 17.1537 v 104.41017 h -17.1537 z m 8.7663,-39.15043 v 0 q 3.8961,0 6.9264,2.62446 3.0032,2.62446 3.0032,8.27922 v 0 q 0,5.43831 -3.0032,8.171 -3.0303,2.73268 -6.9264,2.73268 v 0 q -4.2749,0 -7.197,-2.73268 -2.9221,-2.73269 -2.9221,-8.171 v 0 q 0,-5.65476 2.9221,-8.27922 2.9221,-2.62446 7.197,-2.62446 z m 81.8182,37.20238 v 0 q 13.4469,0 23.079,5.84416 9.659,5.84415 14.8268,16.45021 5.1407,10.63312 5.1407,24.83766 v 0 10.3355 h -71.4827 q 0.3788,17.72186 9.0639,26.97511 8.658,9.25325 24.2424,9.25325 v 0 q 9.9296,0 17.6407,-1.83983 7.684,-1.86688 15.882,-5.35714 v 0 14.98917 q -8.0087,3.51732 -15.8009,5.16775 -7.7922,1.65043 -18.5065,1.65043 v 0 q -14.7997,0 -26.1904,-6.03354 -11.3907,-6.03355 -17.7219,-18.01948 -6.3312,-11.98593 -6.3312,-29.32901 v 0 q 0,-17.12662 5.736,-29.41017 5.763,-12.28355 16.1796,-18.88528 10.4167,-6.62879 24.2425,-6.62879 z m -0.1894,14.01515 v 0 q -12.2836,0 -19.3723,7.90044 -7.1158,7.87337 -8.4957,21.91558 v 0 h 53.1926 q 0,-8.95563 -2.7327,-15.58442 -2.7326,-6.62878 -8.2792,-10.41666 -5.5465,-3.81494 -14.3127,-3.81494 z"
       fill="#5f0faf"
       transform="matrix(0.52410665,0,0,0.52410665,0,76.002074)"
       id="path3" />
  </g>
</svg>
